#Comment line ignore any data following # character 
#Hierarchical Translation and Rotation (.htr) file 
[Header]	
#Header keywords are followed by a single value 
FileType HTR		#Single word string
DataType HTRS		#Translation followed by rotation and scale data
FileVersion 1		#integer
NumSegments 84		#integer
NumFrames 2		#integer
DataFrameRate 30		#integer, data frame rate in this file
EulerRotationOrder ZYX
CalibrationUnits mm
RotationUnits Degrees
GlobalAxisofGravity Y
BoneLengthAxis Y
ScaleFactor 1.00
[SegmentNames&Hierarchy]
#CHILD	PARENT
MASTER GLOBAL
root MASTER
chest root
L_mid_tent01 root
R_mid_tent01 root
spine01 root
Bip01_Neck chest
L_humerus chest
R_humerus chest
weapon_bone chest
Bip01_Head Bip01_Neck
eye_left_bone Bip01_Head
eye_right_bone Bip01_Head
L_forearm L_humerus
L_front_hand L_forearm
L_weapon_bone L_forearm
L_front_hand01_01 L_front_hand
L_front_hand02_01 L_front_hand
L_front_hand03_01 L_front_hand
L_front_hand01_02 L_front_hand01_01
L_front_hand02_02 L_front_hand02_01
L_front_hand03_02 L_front_hand03_01
R_forearm R_humerus
R_front_hand R_forearm
R_weapon_bone R_forearm
R_front_hand01_01 R_front_hand
R_front_hand02_01 R_front_hand
R_front_hand03_01 R_front_hand
R_front_hand01_02 R_front_hand01_01
R_front_hand02_02 R_front_hand02_01
R_front_hand03_02 R_front_hand03_01
null_rope01_connect L_mid_tent01
Rope1_Seg01 null_rope01_connect
Rope1_Seg02 Rope1_Seg01
Rope1_Seg03 Rope1_Seg02
Rope1_Seg04 Rope1_Seg03
Rope1_Seg05 Rope1_Seg04
Rope1_Seg06 Rope1_Seg05
Rope1_Seg07 Rope1_Seg06
Rope1_Seg09 Rope1_Seg07
L_mid_hand01 Rope1_Seg09
L_mid_hand02 Rope1_Seg09
L_mid_hand03 Rope1_Seg09
null_rope02_connect R_mid_tent01
Rope2_Seg01 null_rope02_connect
Rope2_Seg02 Rope2_Seg01
Rope2_Seg03 Rope2_Seg02
Rope2_Seg04 Rope2_Seg03
Rope2_Seg05 Rope2_Seg04
Rope2_Seg06 Rope2_Seg05
Rope2_Seg07 Rope2_Seg06
Rope2_Seg09 Rope2_Seg07
R_mid_hand01 Rope2_Seg09
R_mid_hand02 Rope2_Seg09
R_mid_hand03 Rope2_Seg09
spine02 spine01
spine03 spine02
pelvis spine03
null_rope03_connect pelvis
null_rope04_connect pelvis
Rope3_Seg01 null_rope03_connect
Rope3_Seg02 Rope3_Seg01
Rope3_Seg03 Rope3_Seg02
Rope3_Seg04 Rope3_Seg03
Rope3_Seg05 Rope3_Seg04
Rope3_Seg06 Rope3_Seg05
Rope3_Seg07 Rope3_Seg06
Rope3_Seg08 Rope3_Seg07
Rope3_Seg09 Rope3_Seg08
R_rear_hand01 Rope3_Seg09
R_rear_hand02 Rope3_Seg09
R_rear_hand03 Rope3_Seg09
Rope4_Seg01 null_rope04_connect
Rope4_Seg02 Rope4_Seg01
Rope4_Seg03 Rope4_Seg02
Rope4_Seg04 Rope4_Seg03
Rope4_Seg05 Rope4_Seg04
Rope4_Seg06 Rope4_Seg05
Rope4_Seg07 Rope4_Seg06
Rope4_Seg08 Rope4_Seg07
Rope4_Seg09 Rope4_Seg08
L_rear_hand01 Rope4_Seg09
L_rear_hand02 Rope4_Seg09
L_rear_hand03 Rope4_Seg09
[BasePosition]
#SegmentName Tx, Ty, Tz, Rx, Ry, Rz, BoneLength
MASTER 0.000000 0.000000 0.000000 -90.000000 0.000000 0.000000 10.000000 
root 0.000000 0.000000 0.000000 0.000000 0.000000 0.000000 10.000000 
chest 0.000000 0.000000 0.000000 0.000000 0.000000 0.000000 10.000000 
L_mid_tent01 0.000000 0.000000 0.000000 0.000000 0.000000 0.000000 10.000000 
R_mid_tent01 0.000000 0.000000 0.000000 0.000000 0.000000 0.000000 10.000000 
spine01 0.000000 0.000000 0.000000 0.000000 0.000000 0.000000 10.000000 
Bip01_Neck 0.000000 0.000000 0.000000 0.000000 0.000000 0.000000 10.000000 
L_humerus 0.000000 0.000000 0.000000 0.000000 0.000000 0.000000 10.000000 
R_humerus 0.000000 0.000000 0.000000 0.000000 0.000000 0.000000 10.000000 
weapon_bone 0.000000 0.000000 0.000000 0.000000 0.000000 0.000000 10.000000 
Bip01_Head 0.000000 0.000000 0.000000 0.000000 0.000000 0.000000 10.000000 
eye_left_bone 0.000000 0.000000 0.000000 0.000000 0.000000 0.000000 10.000000 
eye_right_bone 0.000000 0.000000 0.000000 0.000000 0.000000 0.000000 10.000000 
L_forearm 0.000000 0.000000 0.000000 0.000000 0.000000 0.000000 10.000000 
L_front_hand 0.000000 0.000000 0.000000 0.000000 0.000000 0.000000 10.000000 
L_weapon_bone 0.000000 0.000000 0.000000 0.000000 0.000000 0.000000 10.000000 
L_front_hand01_01 0.000000 0.000000 0.000000 0.000000 0.000000 0.000000 10.000000 
L_front_hand02_01 0.000000 0.000000 0.000000 0.000000 0.000000 0.000000 10.000000 
L_front_hand03_01 0.000000 0.000000 0.000000 0.000000 0.000000 0.000000 10.000000 
L_front_hand01_02 0.000000 0.000000 0.000000 0.000000 0.000000 0.000000 10.000000 
L_front_hand02_02 0.000000 0.000000 0.000000 0.000000 0.000000 0.000000 10.000000 
L_front_hand03_02 0.000000 0.000000 0.000000 0.000000 0.000000 0.000000 10.000000 
R_forearm 0.000000 0.000000 0.000000 0.000000 0.000000 0.000000 10.000000 
R_front_hand 0.000000 0.000000 0.000000 0.000000 0.000000 0.000000 10.000000 
R_weapon_bone 0.000000 0.000000 0.000000 0.000000 0.000000 0.000000 10.000000 
R_front_hand01_01 0.000000 0.000000 0.000000 0.000000 0.000000 0.000000 10.000000 
R_front_hand02_01 0.000000 0.000000 0.000000 0.000000 0.000000 0.000000 10.000000 
R_front_hand03_01 0.000000 0.000000 0.000000 0.000000 0.000000 0.000000 10.000000 
R_front_hand01_02 0.000000 0.000000 0.000000 0.000000 0.000000 0.000000 10.000000 
R_front_hand02_02 0.000000 0.000000 0.000000 0.000000 0.000000 0.000000 10.000000 
R_front_hand03_02 0.000000 0.000000 0.000000 0.000000 0.000000 0.000000 10.000000 
null_rope01_connect 0.000000 0.000000 0.000000 0.000000 0.000000 0.000000 10.000000 
Rope1_Seg01 0.000000 0.000000 0.000000 0.000000 0.000000 0.000000 10.000000 
Rope1_Seg02 0.000000 0.000000 0.000000 0.000000 0.000000 0.000000 10.000000 
Rope1_Seg03 0.000000 0.000000 0.000000 0.000000 0.000000 0.000000 10.000000 
Rope1_Seg04 0.000000 0.000000 0.000000 0.000000 0.000000 0.000000 10.000000 
Rope1_Seg05 0.000000 0.000000 0.000000 0.000000 0.000000 0.000000 10.000000 
Rope1_Seg06 0.000000 0.000000 0.000000 0.000000 0.000000 0.000000 10.000000 
Rope1_Seg07 0.000000 0.000000 0.000000 0.000000 0.000000 0.000000 10.000000 
Rope1_Seg09 0.000000 0.000000 0.000000 0.000000 0.000000 0.000000 10.000000 
L_mid_hand01 0.000000 0.000000 0.000000 0.000000 0.000000 0.000000 10.000000 
L_mid_hand02 0.000000 0.000000 0.000000 0.000000 0.000000 0.000000 10.000000 
L_mid_hand03 0.000000 0.000000 0.000000 0.000000 0.000000 0.000000 10.000000 
null_rope02_connect 0.000000 0.000000 0.000000 0.000000 0.000000 0.000000 10.000000 
Rope2_Seg01 0.000000 0.000000 0.000000 0.000000 0.000000 0.000000 10.000000 
Rope2_Seg02 0.000000 0.000000 0.000000 0.000000 0.000000 0.000000 10.000000 
Rope2_Seg03 0.000000 0.000000 0.000000 0.000000 0.000000 0.000000 10.000000 
Rope2_Seg04 0.000000 0.000000 0.000000 0.000000 0.000000 0.000000 10.000000 
Rope2_Seg05 0.000000 0.000000 0.000000 0.000000 0.000000 0.000000 10.000000 
Rope2_Seg06 0.000000 0.000000 0.000000 0.000000 0.000000 0.000000 10.000000 
Rope2_Seg07 0.000000 0.000000 0.000000 0.000000 0.000000 0.000000 10.000000 
Rope2_Seg09 0.000000 0.000000 0.000000 0.000000 0.000000 0.000000 10.000000 
R_mid_hand01 0.000000 0.000000 0.000000 0.000000 0.000000 0.000000 10.000000 
R_mid_hand02 0.000000 0.000000 0.000000 0.000000 0.000000 0.000000 10.000000 
R_mid_hand03 0.000000 0.000000 0.000000 0.000000 0.000000 0.000000 10.000000 
spine02 0.000000 0.000000 0.000000 0.000000 0.000000 0.000000 10.000000 
spine03 0.000000 0.000000 0.000000 0.000000 0.000000 0.000000 10.000000 
pelvis 0.000000 0.000000 0.000000 0.000000 0.000000 0.000000 10.000000 
null_rope03_connect 0.000000 0.000000 0.000000 0.000000 0.000000 0.000000 10.000000 
null_rope04_connect 0.000000 0.000000 0.000000 0.000000 0.000000 0.000000 10.000000 
Rope3_Seg01 0.000000 0.000000 0.000000 0.000000 0.000000 0.000000 10.000000 
Rope3_Seg02 0.000000 0.000000 0.000000 0.000000 0.000000 0.000000 10.000000 
Rope3_Seg03 0.000000 0.000000 0.000000 0.000000 0.000000 0.000000 10.000000 
Rope3_Seg04 0.000000 0.000000 0.000000 0.000000 0.000000 0.000000 10.000000 
Rope3_Seg05 0.000000 0.000000 0.000000 0.000000 0.000000 0.000000 10.000000 
Rope3_Seg06 0.000000 0.000000 0.000000 0.000000 0.000000 0.000000 10.000000 
Rope3_Seg07 0.000000 0.000000 0.000000 0.000000 0.000000 0.000000 10.000000 
Rope3_Seg08 0.000000 0.000000 0.000000 0.000000 0.000000 0.000000 10.000000 
Rope3_Seg09 0.000000 0.000000 0.000000 0.000000 0.000000 0.000000 10.000000 
R_rear_hand01 0.000000 0.000000 0.000000 0.000000 0.000000 0.000000 10.000000 
R_rear_hand02 0.000000 0.000000 0.000000 0.000000 0.000000 0.000000 10.000000 
R_rear_hand03 0.000000 0.000000 0.000000 0.000000 0.000000 0.000000 10.000000 
Rope4_Seg01 0.000000 0.000000 0.000000 0.000000 0.000000 0.000000 10.000000 
Rope4_Seg02 0.000000 0.000000 0.000000 0.000000 0.000000 0.000000 10.000000 
Rope4_Seg03 0.000000 0.000000 0.000000 0.000000 0.000000 0.000000 10.000000 
Rope4_Seg04 0.000000 0.000000 0.000000 0.000000 0.000000 0.000000 10.000000 
Rope4_Seg05 0.000000 0.000000 0.000000 0.000000 0.000000 0.000000 10.000000 
Rope4_Seg06 0.000000 0.000000 0.000000 0.000000 0.000000 0.000000 10.000000 
Rope4_Seg07 0.000000 0.000000 0.000000 0.000000 0.000000 0.000000 10.000000 
Rope4_Seg08 0.000000 0.000000 0.000000 0.000000 0.000000 0.000000 10.000000 
Rope4_Seg09 0.000000 0.000000 0.000000 0.000000 0.000000 0.000000 10.000000 
L_rear_hand01 0.000000 0.000000 0.000000 0.000000 0.000000 0.000000 10.000000 
L_rear_hand02 0.000000 0.000000 0.000000 0.000000 0.000000 0.000000 10.000000 
L_rear_hand03 0.000000 0.000000 0.000000 0.000000 0.000000 0.000000 10.000000 
#Beginning of Data. Separated by tabs
#Fr	Tx	Ty	Tz	Rx	Ry	Rz	SF
[MASTER]
30 0.000000 0.000000 0.000000 0.001660 0.001660 0.001660 0.000000
31 0.000000 0.000000 0.000000 0.001660 0.001660 0.001660 0.000000
[root]
30 -86.628815 -63.650101 1036.504883 -91.230865 -25.366627 -90.995544 1042.064453
31 -80.665230 -63.781372 1027.756592 -91.176514 -24.677214 -91.095955 1032.888428
[chest]
30 -84.512650 -34.090519 0.000000 -3.809147 -1.367426 168.001099 91.129311
31 -84.512650 -34.090519 0.000000 -4.176444 -0.991220 164.331192 91.129311
[L_mid_tent01]
30 27.299530 22.177374 -249.918015 -16.803190 20.086569 -26.029745 252.380890
31 27.299532 22.177368 -249.918015 -16.745476 19.955750 -26.335079 252.380890
[R_mid_tent01]
30 23.228794 24.509907 226.238495 -160.665054 -1.471994 -23.677273 228.744751
31 23.228794 24.509907 226.238495 -160.765900 -1.126544 -23.966681 228.744751
[spine01]
30 -0.361383 -0.195265 0.000000 -0.249560 0.347022 11.615452 0.410763
31 -0.361383 -0.195265 0.000000 -0.297217 0.339723 11.479219 0.410763
[Bip01_Neck]
30 165.484543 71.581718 0.000119 175.896118 1.177290 24.871183 180.302734
31 165.484543 71.581718 0.000119 175.896118 1.177290 24.871183 180.302734
[L_humerus]
30 -13.983130 -135.272980 -120.471481 -86.181244 0.718720 -154.607025 181.680161
31 -13.983130 -135.272980 -120.471481 -88.003273 0.861201 -151.464569 181.680161
[R_humerus]
30 -13.983309 -135.273102 125.287651 97.729454 -0.620120 -160.481812 184.909012
31 -13.983309 -135.273102 125.287651 99.342194 -1.106285 -157.514313 184.909012
[weapon_bone]
30 235.964890 -300.705902 0.000000 0.000000 -89.951546 -128.212341 382.234833
31 235.964890 -300.705902 0.000000 0.000000 -89.951546 -128.212341 382.234833
[Bip01_Head]
30 218.885239 186.861313 -10.141432 6.026401 4.888182 -58.721554 287.976990
31 215.740540 190.361755 -13.285874 7.534567 5.948254 -61.694729 288.024475
[eye_left_bone]
30 -24.626970 125.451866 -64.772606 0.000000 -90.000000 -99.840431 143.318359
31 -24.626970 125.451866 -64.772606 0.000000 -90.000000 -99.840431 143.318359
[eye_right_bone]
30 -24.626970 125.451866 64.327362 0.000000 -89.960434 80.159386 143.117676
31 -24.626970 125.451866 64.327362 0.000000 -89.960434 80.159386 143.117676
[L_forearm]
30 322.776093 0.000000 -0.000119 0.000059 0.002347 -87.135223 322.776093
31 322.776093 0.000000 -0.000119 0.000048 0.002347 -87.659668 322.776093
[L_front_hand]
30 241.149185 -0.042021 -3.300071 -177.811142 -0.587178 -66.281799 241.171753
31 241.149185 -0.042021 -3.300071 -177.774750 -0.450881 -69.860886 241.171753
[L_weapon_bone]
30 156.183838 0.000000 0.000000 0.001702 0.001616 2.949626 156.183838
31 156.183838 0.000000 0.000000 0.001684 0.001635 1.712941 156.183838
[L_front_hand01_01]
30 86.095154 20.947098 -0.655860 0.405585 -0.442306 -4.620490 88.609184
31 86.095154 20.947098 -0.655860 0.405585 -0.442306 -4.620490 88.609184
[L_front_hand02_01]
30 86.935165 -11.437475 24.513514 116.959450 3.630817 1.495453 91.046425
31 86.935165 -11.437475 24.513514 116.959450 3.630817 1.495453 91.046425
[L_front_hand03_01]
30 86.637497 -14.123976 -20.424902 -118.420097 -4.656303 -0.152527 90.126129
31 86.637497 -14.123976 -20.424902 -118.420097 -4.656303 -0.152527 90.126129
[L_front_hand01_02]
30 71.020905 -0.000179 0.000030 0.001534 0.001777 -8.378850 71.020905
31 71.020905 -0.000179 0.000030 0.001534 0.001777 -8.378850 71.020905
[L_front_hand02_02]
30 71.020927 -0.000119 0.000060 0.001534 0.001777 -8.378850 71.020927
31 71.020927 -0.000119 0.000060 0.001534 0.001777 -8.378850 71.020927
[L_front_hand03_02]
30 71.020905 -0.000060 0.000060 0.001534 0.001777 -8.378850 71.020905
31 71.020905 -0.000060 0.000060 0.001534 0.001777 -8.378850 71.020905
[R_forearm]
30 322.776428 -0.000060 0.000030 0.209088 -0.042871 -79.360420 322.776428
31 322.776428 -0.000060 0.000030 0.210563 -0.040734 -79.950363 322.776428
[R_front_hand]
30 238.847015 -0.006795 2.210259 -1.688989 -0.367991 -91.004242 238.857239
31 238.847015 -0.006795 2.210259 -1.685909 -0.381147 -91.441444 238.857239
[R_weapon_bone]
30 155.664093 0.002503 -0.000030 0.003439 0.001312 -95.366806 155.664078
31 155.664093 0.002503 -0.000030 0.003460 0.001257 -93.540924 155.664078
[R_front_hand01_01]
30 87.624611 14.231146 22.918642 -116.960205 3.496675 -1.324138 91.683487
31 87.624611 14.231146 22.918642 -116.960213 3.496675 -1.324139 91.683487
[R_front_hand02_01]
30 89.356956 14.367283 -19.491137 118.419647 -4.257089 0.609827 92.579636
31 89.356956 14.367283 -19.491137 118.419647 -4.257089 0.609827 92.579636
[R_front_hand03_01]
30 87.286232 -22.307278 -0.143439 -0.387970 -0.231462 4.232001 90.091743
31 87.286232 -22.307278 -0.143439 -0.387970 -0.231462 4.232001 90.091743
[R_front_hand01_02]
30 71.020905 0.000060 0.000119 0.001777 0.001534 8.377220 71.020905
31 71.020905 0.000060 0.000119 0.001777 0.001534 8.377220 71.020905
[R_front_hand02_02]
30 71.020844 -0.000030 -0.000119 0.001777 0.001534 8.377220 71.020836
31 71.020844 -0.000030 -0.000119 0.001777 0.001534 8.377220 71.020836
[R_front_hand03_02]
30 71.020905 0.000000 0.000030 0.001777 0.001534 8.377220 71.020905
31 71.020905 0.000000 0.000030 0.001777 0.001534 8.377220 71.020905
[null_rope01_connect]
30 328.732483 0.000000 -0.000238 -82.583534 -62.697338 -138.707870 328.732483
31 328.732483 0.000000 -0.000238 -82.974686 -62.750179 -138.688980 328.732483
[Rope1_Seg01]
30 0.000000 0.000000 0.000000 70.506668 -33.313976 -141.468719 0.000000
31 0.000000 0.000000 0.000000 65.412193 -26.632174 -135.095840 0.000000
[Rope1_Seg02]
30 139.999863 -0.000179 0.000000 -6.822456 14.033525 -2.126923 139.999863
31 139.999863 -0.000179 0.000000 -9.373200 13.498967 -0.140725 139.999863
[Rope1_Seg03]
30 139.999924 0.000060 -0.000060 -14.498926 17.976414 -0.613038 139.999924
31 139.999924 0.000060 -0.000060 -15.822003 15.444451 2.312569 139.999924
[Rope1_Seg04]
30 139.999924 -0.000060 -0.000119 -37.472153 28.017153 5.339880 139.999924
31 139.999924 -0.000060 -0.000119 -30.876427 22.275028 8.201211 139.999924
[Rope1_Seg05]
30 139.999832 0.000119 -0.000060 -15.437136 7.280844 9.404521 139.999832
31 139.999832 0.000119 -0.000060 -5.166474 1.101541 4.825206 139.999832
[Rope1_Seg06]
30 139.999954 0.000119 -0.000060 14.682417 -6.139191 -8.636072 139.999954
31 139.999954 0.000119 -0.000060 16.047968 -9.524407 -8.324372 139.999954
[Rope1_Seg07]
30 139.999985 0.000060 0.000000 22.334373 -11.698220 -11.297343 139.999985
31 139.999985 0.000060 0.000000 9.325151 -7.633290 -3.864709 139.999985
[Rope1_Seg09]
30 121.602913 0.000119 -0.000089 -89.793175 -1.359789 0.847147 121.602913
31 121.602913 0.000119 -0.000089 -89.793175 -1.359789 0.847147 121.602913
[L_mid_hand01]
30 103.859421 1.038730 8.195221 105.620987 -22.988335 -6.761933 104.187431
31 103.859421 1.038730 8.195221 105.620987 -22.988335 -6.761933 104.187431
[L_mid_hand02]
30 105.572853 -4.139662 -10.864139 -139.491974 20.327143 -21.528740 106.211075
31 105.572853 -4.139662 -10.864139 -139.491974 20.327143 -21.528740 106.211075
[L_mid_hand03]
30 104.641464 17.579376 -3.913581 -17.354420 7.254997 25.905659 106.179977
31 104.641464 17.579376 -3.913581 -17.354424 7.255000 25.905664 106.179977
[null_rope02_connect]
30 328.732849 0.000179 -0.000119 -126.852150 72.493729 -85.639412 328.732849
31 328.732849 0.000179 -0.000119 -128.587021 72.641701 -87.057632 328.732849
[Rope2_Seg01]
30 0.000079 0.000110 0.000014 36.260658 -44.681587 -54.019161 0.000136
31 0.000083 0.000111 0.000010 42.570183 -41.573574 -59.714027 0.000139
[Rope2_Seg02]
30 139.999741 -0.000060 -0.000119 4.015216 9.616408 -12.500032 139.999756
31 139.999741 -0.000060 -0.000119 4.886512 8.762885 -12.834126 139.999756
[Rope2_Seg03]
30 140.000107 0.000030 0.000000 13.694777 11.435248 -18.309917 140.000107
31 140.000107 0.000030 0.000000 14.339496 9.193130 -17.757086 140.000107
[Rope2_Seg04]
30 139.999802 0.000000 -0.000060 48.027626 7.608584 -27.396152 139.999802
31 139.999802 0.000000 -0.000060 39.548893 3.930049 -24.999138 139.999802
[Rope2_Seg05]
30 139.999985 -0.000060 0.000119 7.800827 -1.452307 -3.478905 139.999985
31 139.999985 -0.000060 0.000119 1.585261 1.657230 -1.672198 139.999985
[Rope2_Seg06]
30 139.999893 -0.000030 -0.000119 -24.677088 8.541177 8.061110 139.999893
31 139.999893 -0.000030 -0.000119 -27.121674 9.802008 9.337913 139.999893
[Rope2_Seg07]
30 139.999893 0.000060 -0.000060 -13.116187 2.275758 5.513373 139.999893
31 139.999893 0.000060 -0.000060 -12.337895 2.194040 5.488580 139.999893
[Rope2_Seg09]
30 121.338966 0.000089 -0.000060 33.793236 -1.359788 -0.847141 121.338966
31 121.338966 0.000089 -0.000060 33.793236 -1.359788 -0.847141 121.338966
[R_mid_hand01]
30 104.680779 11.144459 -10.335981 -44.070736 19.764444 21.986286 105.778534
31 104.680779 11.144459 -10.335981 -44.070736 19.764444 21.986286 105.778534
[R_mid_hand02]
30 104.070427 2.443552 8.231699 74.148849 -24.768806 7.320621 104.424065
31 104.070427 2.443552 8.231699 74.148849 -24.768806 7.320621 104.424065
[R_mid_hand03]
30 106.028137 -11.221827 -5.996406 -166.566208 8.416404 -28.789036 106.788818
31 106.028137 -11.221827 -5.996406 -166.566208 8.416404 -28.789036 106.788818
[spine02]
30 129.756927 0.001550 0.000119 -0.063579 -3.980489 -6.959492 129.756927
31 129.756927 0.001550 0.000119 -0.055655 -3.969128 -7.065105 129.756927
[spine03]
30 79.030113 0.014847 -0.834823 1.924748 -1.979709 20.228378 79.034523
31 79.051018 0.011220 -0.630758 1.922827 -2.240132 21.190561 79.053535
[pelvis]
30 169.435242 0.051022 0.000000 0.005184 2.597653 -3.991233 169.435257
31 169.435242 0.051022 0.000000 0.004435 2.704128 -4.075486 169.435257
[null_rope03_connect]
30 -1.257226 -2.466202 137.391083 117.833336 -88.671761 -23.530884 137.418976
31 -1.257226 -2.466202 137.391083 115.915512 -88.649689 -22.930292 137.418976
[null_rope04_connect]
30 -1.259640 -2.480268 -137.844437 117.833336 -88.671761 -23.530884 137.872513
31 -1.259640 -2.480268 -137.844437 115.915512 -88.649689 -22.930292 137.872513
[Rope3_Seg01]
30 0.000000 0.000000 0.000000 -134.037949 -35.371876 -76.727837 0.000000
31 0.000000 0.000000 0.000000 -130.444839 -23.564301 -81.581139 0.000000
[Rope3_Seg02]
30 139.999924 -0.000119 0.000060 0.433573 -1.641716 1.617866 139.999924
31 139.999924 -0.000119 0.000060 0.170381 -2.011718 0.250950 139.999924
[Rope3_Seg03]
30 139.999924 -0.000119 0.000119 0.489113 -2.055106 2.060656 139.999924
31 139.999924 -0.000119 0.000119 0.222663 -2.432408 0.308597 139.999924
[Rope3_Seg04]
30 139.999924 0.000119 0.000000 0.940540 -5.983156 1.463097 139.999924
31 139.999924 0.000119 0.000000 1.155254 -10.690884 0.837420 139.999924
[Rope3_Seg05]
30 139.999924 -0.000238 0.000060 0.782292 -1.973059 4.980825 139.999924
31 139.999924 -0.000238 0.000060 -0.440929 4.404179 -0.054852 139.999924
[Rope3_Seg06]
30 139.999893 -0.000119 -0.000060 0.961599 10.769736 7.479641 139.999893
31 139.999893 -0.000119 -0.000060 -0.614687 18.825119 -1.238180 139.999893
[Rope3_Seg07]
30 139.999771 0.000060 -0.000119 0.946096 5.103272 3.851732 139.999771
31 139.999771 0.000060 -0.000119 0.880360 7.061782 -0.375089 139.999771
[Rope3_Seg08]
30 139.999985 -0.000060 0.000000 0.765753 2.515367 2.126042 139.999985
31 139.999985 -0.000060 0.000000 0.860660 3.436303 -0.229804 139.999985
[Rope3_Seg09]
30 90.185997 -0.000179 -0.000060 89.793228 -1.359877 -0.847183 90.185997
31 90.185997 -0.000179 -0.000060 89.793228 -1.359877 -0.847183 90.185997
[R_rear_hand01]
30 103.366196 -6.073594 -10.757982 -160.090088 14.865479 -24.717995 104.101845
31 103.366196 -6.073594 -10.757982 -160.090088 14.865479 -24.717995 104.101845
[R_rear_hand02]
30 100.509819 12.039542 -7.992327 -35.711582 16.148796 24.170401 101.543350
31 100.509819 12.039542 -7.992327 -35.711582 16.148796 24.170401 101.543350
[R_rear_hand03]
30 101.539970 5.215704 5.435467 83.699936 -25.497597 6.583542 101.819031
31 101.539970 5.215704 5.435467 83.699936 -25.497597 6.583542 101.819031
[Rope4_Seg01]
30 0.000010 0.000038 -0.000114 61.110310 -30.195190 -128.748550 0.000121
31 0.000010 0.000038 -0.000114 54.255241 -18.810091 -127.785751 0.000121
[Rope4_Seg02]
30 139.999985 0.000060 0.000119 -0.939863 12.838922 3.136396 139.999985
31 139.999985 0.000060 0.000119 1.363506 15.106523 8.556994 139.999985
[Rope4_Seg03]
30 139.999924 0.000000 -0.000238 -0.139910 12.523574 3.290402 139.999924
31 139.999924 0.000000 -0.000238 0.845565 14.052950 6.677384 139.999924
[Rope4_Seg04]
30 139.999985 0.000000 0.000119 0.510871 13.945310 2.655313 139.999985
31 139.999985 0.000000 0.000119 1.373352 15.363433 3.800872 139.999985
[Rope4_Seg05]
30 139.999802 -0.000060 -0.000119 0.409132 6.576105 2.348679 139.999802
31 139.999802 -0.000060 -0.000119 -1.269570 0.664262 4.402322 139.999802
[Rope4_Seg06]
30 139.999924 0.000000 0.000060 -0.532760 -0.809518 2.127290 139.999924
31 139.999924 0.000000 0.000060 -3.176308 -9.020472 5.027999 139.999924
[Rope4_Seg07]
30 139.999802 0.000000 0.000000 -0.588626 -2.438136 1.701089 139.999802
31 139.999802 0.000000 0.000000 -1.725529 -8.518204 3.602659 139.999802
[Rope4_Seg08]
30 139.999924 0.000000 0.000119 -1.690135 -0.027619 1.030875 139.999924
31 139.999924 0.000000 0.000119 -1.966097 -2.949846 1.858399 139.999924
[Rope4_Seg09]
30 90.185791 0.000060 0.000060 -135.617828 2.228885 0.850567 90.185791
31 90.185791 0.000060 0.000060 -135.617828 2.228885 0.850567 90.185791
[L_rear_hand01]
30 101.696655 -8.392275 -7.654577 -36.242058 -14.765300 157.809067 102.329041
31 101.696655 -8.392275 -7.654577 -36.242058 -14.765300 157.809067 102.329041
[L_rear_hand02]
30 102.726799 -1.568258 5.773216 83.814362 23.151863 173.698151 102.900848
31 102.726799 -1.568258 5.773216 83.814369 23.151869 173.698151 102.900848
[L_rear_hand03]
30 104.552910 9.721220 -10.420293 -159.518845 -14.052428 -157.569275 105.519653
31 104.552910 9.721220 -10.420293 -159.518845 -14.052428 -157.569275 105.519653
